<?xml version="1.0" ?><svg viewBox="0 0 40 40" xmlns="http://www.w3.org/2000/svg"><defs><style>.cls-1{fill:#fff;}</style></defs><g id="Logos"><g id="Samsung"><ellipse cx="20" cy="20" rx="15.22" ry="4.35" transform="translate(-3.21 3.83) rotate(-10.13)"/><path class="cls-1" d="M10.75,20.58a.42.42,0,0,1,0,.22.32.32,0,0,1-.62-.07v-.3H9.31v.24c0,.69.54.9,1.13.9s1-.19,1.09-.71a1.6,1.6,0,0,0,0-.51c-.13-.64-1.31-.84-1.4-1.2a.43.43,0,0,1,0-.16.25.25,0,0,1,.28-.21.26.26,0,0,1,.29.28v.19h.77V19c0-.67-.6-.78-1-.78s-1,.18-1.08.69a1,1,0,0,0,0,.42c.14.63,1.24.81,1.4,1.22" id="S"/><path class="cls-1" d="M12.63,18.35l-.58,3.1h.84l.42-2.81h0l.41,2.81h.84L14,18.35Zm4.68,0-.38,2.37h0l-.38-2.37H15.26l-.06,3.1H16l0-2.79h0l.52,2.79h.78l.52-2.79h0l0,2.79h.77l-.07-3.1Z"/><path class="cls-1" d="M20.82,20.57a.45.45,0,0,1,0,.23.28.28,0,0,1-.3.21.27.27,0,0,1-.31-.28v-.3h-.84v.23c0,.7.55.9,1.13.9s1-.19,1.1-.7a1.46,1.46,0,0,0,0-.51c-.13-.65-1.3-.84-1.39-1.21a.43.43,0,0,1,0-.16.25.25,0,0,1,.28-.21.27.27,0,0,1,.29.28v.2h.77V19c0-.68-.61-.78-1-.78s-1,.18-1.09.68a1.19,1.19,0,0,0,0,.42c.13.64,1.23.82,1.39,1.22" data-name="S" id="S-2"/><path class="cls-1" d="M23.42,21a.27.27,0,0,0,.3-.23.45.45,0,0,0,0-.12V18.35h.78v2.43c-.06.57-.52.76-1.09.76s-1-.19-1.08-.76V18.35h.78v2.29a.45.45,0,0,0,0,.12.27.27,0,0,0,.29.23m3.79-2.64.05,2.43h0l-.71-2.43H25.38v3.07h.76l0-2.52h0l.77,2.52H28V18.35ZM29.89,21a.28.28,0,0,0,.31-.22.49.49,0,0,0,0-.12v-.45h-.32v-.45H31v.83a1.64,1.64,0,0,1,0,.2c-.05.57-.54.77-1.09.77s-1-.2-1.09-.77a1.64,1.64,0,0,1,0-.2v-1.3c0-.06,0-.16,0-.21.07-.58.54-.76,1.09-.76s1,.18,1.09.76c0,.1,0,.21,0,.21v.1H30.2v-.17a.68.68,0,0,0,0-.12.28.28,0,0,0-.31-.23.27.27,0,0,0-.3.23.59.59,0,0,0,0,.14v1.42a.49.49,0,0,0,0,.12.29.29,0,0,0,.32.22"/></g></g></svg>